<mxfile host="app.diagrams.net" modified="2022-12-14T17:04:53.539Z" agent="5.0 (Windows NT 10.0; Win64; x64) AppleWebKit/537.36 (KHTML, like Gecko) Chrome/108.0.0.0 Safari/537.36" version="20.6.0" etag="j-4AybQ2yqlShVEHlc8S" type="github">
  <diagram id="vX2mQukgiBAY-gzYamp-" name="Page-1">
    <mxGraphModel dx="769" dy="417" grid="1" gridSize="10" guides="1" tooltips="1" connect="1" arrows="1" fold="1" page="1" pageScale="1" pageWidth="413" pageHeight="291" math="0" shadow="0">
      <root>
        <mxCell id="0" />
        <mxCell id="1" parent="0" />
        <mxCell id="O1md9pXTTEW-Dt7IMe3F-2" value="&lt;span style=&quot;&quot;&gt;Application IHM&lt;/span&gt;" style="shape=umlLifeline;perimeter=lifelinePerimeter;whiteSpace=wrap;html=1;container=0;collapsible=0;recursiveResize=0;outlineConnect=0;rounded=1;fillColor=#FAE5C7;strokeColor=#0F8B8D;fontColor=#143642;" vertex="1" parent="1">
          <mxGeometry x="326.46" y="86.5" width="100" height="583.5" as="geometry" />
        </mxCell>
        <mxCell id="O1md9pXTTEW-Dt7IMe3F-3" value="user" style="shape=umlActor;verticalLabelPosition=bottom;verticalAlign=top;html=1;rounded=1;fillColor=#FAE5C7;strokeColor=#0F8B8D;fontColor=#143642;" vertex="1" parent="1">
          <mxGeometry x="163" y="67" width="30" height="60" as="geometry" />
        </mxCell>
        <mxCell id="O1md9pXTTEW-Dt7IMe3F-4" value="&lt;span style=&quot;&quot;&gt;Application&lt;/span&gt;" style="shape=umlLifeline;perimeter=lifelinePerimeter;whiteSpace=wrap;html=1;container=0;collapsible=0;recursiveResize=0;outlineConnect=0;rounded=1;fillColor=#FAE5C7;strokeColor=#0F8B8D;fontColor=#143642;" vertex="1" parent="1">
          <mxGeometry x="525" y="86.5" width="100" height="583.5" as="geometry" />
        </mxCell>
        <mxCell id="O1md9pXTTEW-Dt7IMe3F-5" value="&lt;span style=&quot;&quot;&gt;Storage&lt;/span&gt;" style="shape=umlLifeline;perimeter=lifelinePerimeter;whiteSpace=wrap;html=1;container=0;collapsible=0;recursiveResize=0;outlineConnect=0;rounded=1;fillColor=#FAE5C7;strokeColor=#0F8B8D;fontColor=#143642;" vertex="1" parent="1">
          <mxGeometry x="723" y="86.5" width="100" height="583.5" as="geometry" />
        </mxCell>
        <mxCell id="O1md9pXTTEW-Dt7IMe3F-6" value="" style="endArrow=none;dashed=1;html=1;rounded=1;labelBackgroundColor=#DAD2D8;strokeColor=#009900;fontColor=#143642;fillColor=#d5e8d4;" edge="1" parent="1">
          <mxGeometry width="50" height="50" relative="1" as="geometry">
            <mxPoint x="178" y="670" as="sourcePoint" />
            <mxPoint x="177.86493506493503" y="147" as="targetPoint" />
          </mxGeometry>
        </mxCell>
        <mxCell id="O1md9pXTTEW-Dt7IMe3F-13" value="" style="html=1;points=[];perimeter=orthogonalPerimeter;rounded=0;glass=0;labelBackgroundColor=none;fillStyle=auto;fillColor=#FAE5C7;strokeColor=#0F8B8D;fontColor=#143642;" vertex="1" parent="1">
          <mxGeometry x="173" y="160" width="10" height="490" as="geometry" />
        </mxCell>
        <mxCell id="O1md9pXTTEW-Dt7IMe3F-14" value="" style="html=1;points=[];perimeter=orthogonalPerimeter;rounded=0;glass=0;labelBackgroundColor=none;fillStyle=auto;fillColor=#FAE5C7;strokeColor=#0F8B8D;fontColor=#143642;" vertex="1" parent="1">
          <mxGeometry x="371.46" y="160" width="10" height="490" as="geometry" />
        </mxCell>
        <mxCell id="O1md9pXTTEW-Dt7IMe3F-16" value="" style="html=1;points=[];perimeter=orthogonalPerimeter;rounded=0;glass=0;labelBackgroundColor=none;fillStyle=auto;fillColor=#FAE5C7;strokeColor=#0F8B8D;fontColor=#143642;" vertex="1" parent="1">
          <mxGeometry x="570" y="160" width="10" height="490" as="geometry" />
        </mxCell>
        <mxCell id="O1md9pXTTEW-Dt7IMe3F-17" value="" style="html=1;points=[];perimeter=orthogonalPerimeter;rounded=0;glass=0;labelBackgroundColor=none;fillStyle=auto;fillColor=#FAE5C7;strokeColor=#0F8B8D;fontColor=#143642;" vertex="1" parent="1">
          <mxGeometry x="768" y="530" width="10" height="120" as="geometry" />
        </mxCell>
        <mxCell id="O1md9pXTTEW-Dt7IMe3F-18" value="Select create save" style="text;html=1;align=center;verticalAlign=middle;resizable=0;points=[];autosize=1;strokeColor=none;fillColor=none;rounded=1;fontColor=#143642;" vertex="1" parent="1">
          <mxGeometry x="218.09" y="154" width="120" height="30" as="geometry" />
        </mxCell>
        <mxCell id="O1md9pXTTEW-Dt7IMe3F-19" value="" style="endArrow=open;endFill=1;endSize=12;html=1;rounded=1;entryX=0.071;entryY=0.165;entryDx=0;entryDy=0;entryPerimeter=0;labelBackgroundColor=#DAD2D8;strokeColor=#A8201A;fontColor=#143642;" edge="1" parent="1">
          <mxGeometry width="160" relative="1" as="geometry">
            <mxPoint x="183.5" y="183.42999999999984" as="sourcePoint" />
            <mxPoint x="372.6700000000001" y="183.04999999999995" as="targetPoint" />
          </mxGeometry>
        </mxCell>
        <mxCell id="O1md9pXTTEW-Dt7IMe3F-20" value="Ask interface create save" style="text;html=1;align=center;verticalAlign=middle;resizable=0;points=[];autosize=1;strokeColor=none;fillColor=none;rounded=1;fontColor=#143642;" vertex="1" parent="1">
          <mxGeometry x="397" y="167" width="160" height="30" as="geometry" />
        </mxCell>
        <mxCell id="O1md9pXTTEW-Dt7IMe3F-21" value="" style="endArrow=open;endFill=1;endSize=12;html=1;rounded=1;labelBackgroundColor=#DAD2D8;strokeColor=#A8201A;fontColor=#143642;" edge="1" parent="1">
          <mxGeometry width="160" relative="1" as="geometry">
            <mxPoint x="381" y="194" as="sourcePoint" />
            <mxPoint x="571" y="194" as="targetPoint" />
          </mxGeometry>
        </mxCell>
        <mxCell id="O1md9pXTTEW-Dt7IMe3F-22" value="Select src path, target path&lt;br&gt;and add to list" style="text;html=1;align=center;verticalAlign=middle;resizable=0;points=[];autosize=1;strokeColor=none;fillColor=none;rounded=1;fontColor=#143642;" vertex="1" parent="1">
          <mxGeometry x="192.41" y="249" width="170" height="40" as="geometry" />
        </mxCell>
        <mxCell id="O1md9pXTTEW-Dt7IMe3F-23" value="" style="endArrow=open;endFill=1;endSize=12;html=1;rounded=1;labelBackgroundColor=#DAD2D8;strokeColor=#A8201A;fontColor=#143642;" edge="1" parent="1">
          <mxGeometry x="326.46" y="86.5" width="160" relative="1" as="geometry">
            <mxPoint x="182.42" y="290" as="sourcePoint" />
            <mxPoint x="372.42" y="290" as="targetPoint" />
          </mxGeometry>
        </mxCell>
        <mxCell id="O1md9pXTTEW-Dt7IMe3F-24" value="Ask interface for transfer&amp;nbsp;&lt;br&gt;information in the list" style="text;html=1;align=center;verticalAlign=middle;resizable=0;points=[];autosize=1;strokeColor=none;fillColor=none;rounded=1;fontColor=#143642;" vertex="1" parent="1">
          <mxGeometry x="396.36" y="265" width="160" height="40" as="geometry" />
        </mxCell>
        <mxCell id="O1md9pXTTEW-Dt7IMe3F-25" value="" style="endArrow=open;endFill=1;endSize=12;html=1;rounded=1;labelBackgroundColor=#DAD2D8;strokeColor=#A8201A;fontColor=#143642;" edge="1" parent="1">
          <mxGeometry width="160" relative="1" as="geometry">
            <mxPoint x="380" y="304.9999999999999" as="sourcePoint" />
            <mxPoint x="570" y="304.9999999999999" as="targetPoint" />
          </mxGeometry>
        </mxCell>
        <mxCell id="O1md9pXTTEW-Dt7IMe3F-26" value="Loading screen" style="text;html=1;align=center;verticalAlign=middle;resizable=0;points=[];autosize=1;strokeColor=none;fillColor=none;rounded=1;fontColor=#143642;" vertex="1" parent="1">
          <mxGeometry x="422.42" y="310" width="110" height="30" as="geometry" />
        </mxCell>
        <mxCell id="O1md9pXTTEW-Dt7IMe3F-27" value="" style="endArrow=block;dashed=1;endFill=0;endSize=12;html=1;rounded=1;labelBackgroundColor=#DAD2D8;strokeColor=#A8201A;fontColor=#143642;" edge="1" parent="1">
          <mxGeometry width="160" relative="1" as="geometry">
            <mxPoint x="570.9200000000003" y="338" as="sourcePoint" />
            <mxPoint x="381.0866666666668" y="338" as="targetPoint" />
          </mxGeometry>
        </mxCell>
        <mxCell id="O1md9pXTTEW-Dt7IMe3F-40" value="Loading screen" style="text;html=1;align=center;verticalAlign=middle;resizable=0;points=[];autosize=1;strokeColor=none;fillColor=none;rounded=1;fontColor=#143642;" vertex="1" parent="1">
          <mxGeometry x="419.77000000000004" y="195" width="110" height="30" as="geometry" />
        </mxCell>
        <mxCell id="O1md9pXTTEW-Dt7IMe3F-41" value="" style="endArrow=block;dashed=1;endFill=0;endSize=12;html=1;rounded=1;exitX=-0.211;exitY=0.186;exitDx=0;exitDy=0;exitPerimeter=0;labelBackgroundColor=#DAD2D8;strokeColor=#A8201A;fontColor=#143642;" edge="1" parent="1">
          <mxGeometry width="160" relative="1" as="geometry">
            <mxPoint x="567.5499999999997" y="223.99800000000005" as="sourcePoint" />
            <mxPoint x="381.65999999999985" y="224.59000000000003" as="targetPoint" />
          </mxGeometry>
        </mxCell>
        <mxCell id="O1md9pXTTEW-Dt7IMe3F-42" value="Request user select a folder&amp;nbsp;&lt;br&gt;or a file" style="text;html=1;align=center;verticalAlign=middle;resizable=0;points=[];autosize=1;strokeColor=none;fillColor=none;rounded=1;fontColor=#143642;" vertex="1" parent="1">
          <mxGeometry x="187.60000000000002" y="197" width="180" height="40" as="geometry" />
        </mxCell>
        <mxCell id="O1md9pXTTEW-Dt7IMe3F-43" value="" style="endArrow=block;endFill=0;endSize=12;html=1;rounded=1;labelBackgroundColor=#DAD2D8;strokeColor=#A8201A;fontColor=#143642;" edge="1" parent="1">
          <mxGeometry width="160" relative="1" as="geometry">
            <mxPoint x="370.77" y="235.0000000000001" as="sourcePoint" />
            <mxPoint x="182.59666666666658" y="235.0000000000001" as="targetPoint" />
          </mxGeometry>
        </mxCell>
        <mxCell id="O1md9pXTTEW-Dt7IMe3F-58" value="Request user confirm the &lt;br&gt;transfer" style="text;html=1;align=center;verticalAlign=middle;resizable=0;points=[];autosize=1;strokeColor=none;fillColor=none;rounded=1;fontColor=#143642;" vertex="1" parent="1">
          <mxGeometry x="197.41000000000003" y="311" width="160" height="40" as="geometry" />
        </mxCell>
        <mxCell id="O1md9pXTTEW-Dt7IMe3F-59" value="" style="endArrow=block;endFill=0;endSize=12;html=1;rounded=1;labelBackgroundColor=#DAD2D8;strokeColor=#A8201A;fontColor=#143642;" edge="1" parent="1">
          <mxGeometry width="160" relative="1" as="geometry">
            <mxPoint x="371.16999999999996" y="351.0000000000001" as="sourcePoint" />
            <mxPoint x="182.99666666666658" y="351.0000000000001" as="targetPoint" />
          </mxGeometry>
        </mxCell>
        <mxCell id="O1md9pXTTEW-Dt7IMe3F-60" value="User confirm the transfer" style="text;html=1;align=center;verticalAlign=middle;resizable=0;points=[];autosize=1;strokeColor=none;fillColor=none;rounded=1;fontColor=#143642;" vertex="1" parent="1">
          <mxGeometry x="197.99" y="371" width="160" height="30" as="geometry" />
        </mxCell>
        <mxCell id="O1md9pXTTEW-Dt7IMe3F-61" value="" style="endArrow=open;endFill=1;endSize=12;html=1;rounded=1;labelBackgroundColor=#DAD2D8;strokeColor=#A8201A;fontColor=#143642;" edge="1" parent="1">
          <mxGeometry x="326.46" y="86.5" width="160" relative="1" as="geometry">
            <mxPoint x="182.99999999999997" y="401" as="sourcePoint" />
            <mxPoint x="373.00000000000006" y="401" as="targetPoint" />
          </mxGeometry>
        </mxCell>
        <mxCell id="O1md9pXTTEW-Dt7IMe3F-62" value="Ask interface for progress bar" style="text;html=1;align=center;verticalAlign=middle;resizable=0;points=[];autosize=1;strokeColor=none;fillColor=none;rounded=1;fontColor=#143642;" vertex="1" parent="1">
          <mxGeometry x="386.94" y="386" width="180" height="30" as="geometry" />
        </mxCell>
        <mxCell id="O1md9pXTTEW-Dt7IMe3F-63" value="" style="endArrow=open;endFill=1;endSize=12;html=1;rounded=1;labelBackgroundColor=#DAD2D8;strokeColor=#A8201A;fontColor=#143642;" edge="1" parent="1">
          <mxGeometry width="160" relative="1" as="geometry">
            <mxPoint x="380.58" y="415.9999999999999" as="sourcePoint" />
            <mxPoint x="570.58" y="415.9999999999999" as="targetPoint" />
          </mxGeometry>
        </mxCell>
        <mxCell id="O1md9pXTTEW-Dt7IMe3F-64" value="Loading screen" style="text;html=1;align=center;verticalAlign=middle;resizable=0;points=[];autosize=1;strokeColor=none;fillColor=none;rounded=1;fontColor=#143642;" vertex="1" parent="1">
          <mxGeometry x="423" y="421" width="110" height="30" as="geometry" />
        </mxCell>
        <mxCell id="O1md9pXTTEW-Dt7IMe3F-65" value="" style="endArrow=block;dashed=1;endFill=0;endSize=12;html=1;rounded=1;labelBackgroundColor=#DAD2D8;strokeColor=#A8201A;fontColor=#143642;" edge="1" parent="1">
          <mxGeometry width="160" relative="1" as="geometry">
            <mxPoint x="571.5000000000003" y="449" as="sourcePoint" />
            <mxPoint x="381.6666666666668" y="449" as="targetPoint" />
          </mxGeometry>
        </mxCell>
        <mxCell id="O1md9pXTTEW-Dt7IMe3F-66" value="Request user start the &lt;br&gt;procedure&amp;nbsp;" style="text;html=1;align=center;verticalAlign=middle;resizable=0;points=[];autosize=1;strokeColor=none;fillColor=none;rounded=1;fontColor=#143642;" vertex="1" parent="1">
          <mxGeometry x="207.99000000000004" y="422" width="140" height="40" as="geometry" />
        </mxCell>
        <mxCell id="O1md9pXTTEW-Dt7IMe3F-67" value="" style="endArrow=block;endFill=0;endSize=12;html=1;rounded=1;labelBackgroundColor=#DAD2D8;strokeColor=#A8201A;fontColor=#143642;" edge="1" parent="1">
          <mxGeometry width="160" relative="1" as="geometry">
            <mxPoint x="371.75000000000006" y="462.0000000000001" as="sourcePoint" />
            <mxPoint x="183.57666666666657" y="462.0000000000001" as="targetPoint" />
          </mxGeometry>
        </mxCell>
        <mxCell id="O1md9pXTTEW-Dt7IMe3F-68" value="User select start&lt;br&gt;&amp;nbsp;(also suspension and cancel &lt;br&gt;in process if need)" style="text;html=1;align=center;verticalAlign=middle;resizable=0;points=[];autosize=1;strokeColor=none;fillColor=none;rounded=1;fontColor=#143642;" vertex="1" parent="1">
          <mxGeometry x="187.41" y="470" width="180" height="60" as="geometry" />
        </mxCell>
        <mxCell id="O1md9pXTTEW-Dt7IMe3F-69" value="" style="endArrow=open;endFill=1;endSize=12;html=1;rounded=1;labelBackgroundColor=#DAD2D8;strokeColor=#A8201A;fontColor=#143642;" edge="1" parent="1">
          <mxGeometry x="326.46" y="86.5" width="160" relative="1" as="geometry">
            <mxPoint x="181.45999999999995" y="530" as="sourcePoint" />
            <mxPoint x="371.46" y="530" as="targetPoint" />
          </mxGeometry>
        </mxCell>
        <mxCell id="O1md9pXTTEW-Dt7IMe3F-70" value="Send transfer request" style="text;html=1;align=center;verticalAlign=middle;resizable=0;points=[];autosize=1;strokeColor=none;fillColor=none;rounded=1;fontColor=#143642;" vertex="1" parent="1">
          <mxGeometry x="407.82" y="513.17" width="140" height="30" as="geometry" />
        </mxCell>
        <mxCell id="O1md9pXTTEW-Dt7IMe3F-71" value="" style="endArrow=open;endFill=1;endSize=12;html=1;rounded=1;labelBackgroundColor=#DAD2D8;strokeColor=#A8201A;fontColor=#143642;" edge="1" parent="1">
          <mxGeometry width="160" relative="1" as="geometry">
            <mxPoint x="381.4599999999999" y="543.1699999999998" as="sourcePoint" />
            <mxPoint x="571.4599999999999" y="543.1699999999998" as="targetPoint" />
          </mxGeometry>
        </mxCell>
        <mxCell id="O1md9pXTTEW-Dt7IMe3F-72" value="Start transfer" style="text;html=1;align=center;verticalAlign=middle;resizable=0;points=[];autosize=1;strokeColor=none;fillColor=none;rounded=1;fontColor=#143642;" vertex="1" parent="1">
          <mxGeometry x="631.36" y="530" width="90" height="30" as="geometry" />
        </mxCell>
        <mxCell id="O1md9pXTTEW-Dt7IMe3F-73" value="" style="endArrow=open;endFill=1;endSize=12;html=1;rounded=1;labelBackgroundColor=#DAD2D8;strokeColor=#A8201A;fontColor=#143642;" edge="1" parent="1">
          <mxGeometry width="160" relative="1" as="geometry">
            <mxPoint x="580" y="559.9999999999999" as="sourcePoint" />
            <mxPoint x="770" y="559.9999999999999" as="targetPoint" />
          </mxGeometry>
        </mxCell>
        <mxCell id="O1md9pXTTEW-Dt7IMe3F-74" value="Transfer successful" style="text;html=1;align=center;verticalAlign=middle;resizable=0;points=[];autosize=1;strokeColor=none;fillColor=none;rounded=1;fontColor=#143642;" vertex="1" parent="1">
          <mxGeometry x="611.33" y="562" width="130" height="30" as="geometry" />
        </mxCell>
        <mxCell id="O1md9pXTTEW-Dt7IMe3F-75" value="" style="endArrow=block;dashed=1;endFill=0;endSize=12;html=1;rounded=1;labelBackgroundColor=#DAD2D8;strokeColor=#A8201A;fontColor=#143642;" edge="1" parent="1">
          <mxGeometry width="160" relative="1" as="geometry">
            <mxPoint x="769.8300000000003" y="590" as="sourcePoint" />
            <mxPoint x="579.9966666666668" y="590" as="targetPoint" />
          </mxGeometry>
        </mxCell>
        <mxCell id="O1md9pXTTEW-Dt7IMe3F-76" value="Send creation confirmation" style="text;html=1;align=center;verticalAlign=middle;resizable=0;points=[];autosize=1;strokeColor=none;fillColor=none;rounded=1;fontColor=#143642;" vertex="1" parent="1">
          <mxGeometry x="391.5" y="575" width="170" height="30" as="geometry" />
        </mxCell>
        <mxCell id="O1md9pXTTEW-Dt7IMe3F-77" value="" style="endArrow=block;dashed=1;endFill=0;endSize=12;html=1;rounded=1;labelBackgroundColor=#DAD2D8;strokeColor=#A8201A;fontColor=#143642;" edge="1" parent="1">
          <mxGeometry width="160" relative="1" as="geometry">
            <mxPoint x="570.0000000000003" y="603" as="sourcePoint" />
            <mxPoint x="380.16666666666686" y="603" as="targetPoint" />
          </mxGeometry>
        </mxCell>
        <mxCell id="O1md9pXTTEW-Dt7IMe3F-78" value="Notify user confirmation&lt;br&gt;message" style="text;html=1;align=center;verticalAlign=middle;resizable=0;points=[];autosize=1;strokeColor=none;fillColor=none;rounded=1;fontColor=#143642;" vertex="1" parent="1">
          <mxGeometry x="202.96" y="581" width="150" height="40" as="geometry" />
        </mxCell>
        <mxCell id="O1md9pXTTEW-Dt7IMe3F-79" value="" style="endArrow=block;dashed=1;endFill=0;endSize=12;html=1;rounded=1;labelBackgroundColor=#DAD2D8;strokeColor=#A8201A;fontColor=#143642;" edge="1" parent="1">
          <mxGeometry width="160" relative="1" as="geometry">
            <mxPoint x="371.4600000000005" y="620" as="sourcePoint" />
            <mxPoint x="181.62666666666698" y="620" as="targetPoint" />
          </mxGeometry>
        </mxCell>
      </root>
    </mxGraphModel>
  </diagram>
</mxfile>
